<?xml version="1.0" encoding="UTF-8" standalone="no"?>
<svg
   xmlns:dc="http://purl.org/dc/elements/1.1/"
   xmlns:cc="http://creativecommons.org/ns#"
   xmlns:rdf="http://www.w3.org/1999/02/22-rdf-syntax-ns#"
   xmlns:svg="http://www.w3.org/2000/svg"
   xmlns="http://www.w3.org/2000/svg"
   xmlns:sodipodi="http://sodipodi.sourceforge.net/DTD/sodipodi-0.dtd"
   xmlns:inkscape="http://www.inkscape.org/namespaces/inkscape"
   width="10.507567in"
   height="6.9924803in"
   viewBox="0 0 266.8922 177.60902"
   version="1.1"
   id="svg1449"
   inkscape:version="1.0.1 (c497b03c, 2020-09-10)"
   sodipodi:docname="box-joints.svg">
  <defs
     id="defs1443" />
  <sodipodi:namedview
     id="base"
     pagecolor="#ffffff"
     bordercolor="#666666"
     borderopacity="1.0"
     inkscape:pageopacity="0.0"
     inkscape:pageshadow="2"
     inkscape:zoom="1.6446482"
     inkscape:cx="504.36319"
     inkscape:cy="676.13739"
     inkscape:document-units="in"
     inkscape:current-layer="layer1"
     inkscape:document-rotation="0"
     showgrid="false"
     units="in"
     showguides="true"
     inkscape:guide-bbox="true"
     fit-margin-top="1"
     fit-margin-left="1"
     fit-margin-right="1"
     fit-margin-bottom="1"
     inkscape:window-width="2560"
     inkscape:window-height="1415"
     inkscape:window-x="0"
     inkscape:window-y="25"
     inkscape:window-maximized="0"
     inkscape:snap-grids="false"
     inkscape:snap-to-guides="false"
     inkscape:snap-others="false"
     inkscape:object-nodes="false"
     inkscape:snap-nodes="false">
    <sodipodi:guide
       position="57.150802,188.57195"
       orientation="-1,0"
       id="guide2344"
       inkscape:label=""
       inkscape:locked="false"
       inkscape:color="rgb(0,0,255)" />
    <sodipodi:guide
       position="82.550803,190.27285"
       orientation="-1,0"
       id="guide2346"
       inkscape:label=""
       inkscape:locked="false"
       inkscape:color="rgb(0,0,255)" />
    <sodipodi:guide
       position="72.194254,146.04963"
       orientation="0,1"
       id="guide2348"
       inkscape:label=""
       inkscape:locked="false"
       inkscape:color="rgb(0,0,255)" />
    <sodipodi:guide
       position="-5.2908693,126.99963"
       orientation="0,1"
       id="guide2350"
       inkscape:label=""
       inkscape:locked="false"
       inkscape:color="rgb(0,0,255)" />
  </sodipodi:namedview>
  <metadata
     id="metadata1446">
    <rdf:RDF>
      <cc:Work
         rdf:about="">
        <dc:format>image/svg+xml</dc:format>
        <dc:type
           rdf:resource="http://purl.org/dc/dcmitype/StillImage" />
        <dc:title></dc:title>
      </cc:Work>
    </rdf:RDF>
  </metadata>
  <g
     inkscape:label="Layer 1"
     inkscape:groupmode="layer"
     id="layer1">
    <path
       id="rect1451"
       style="fill:#ff0000;stroke:#000000;stroke-width:6.35;stroke-linecap:round;stroke-linejoin:round;stroke-miterlimit:4;stroke-dasharray:none;stroke-opacity:1"
       d="m 28.766423,31.750783 c 0,17.991537 0,35.983073 0,53.97461 69.85026,0 139.700527,0 209.550787,0 0,-12.700521 0,-25.401042 0,-38.101563 -8.4668,0 -16.9336,0 -25.40039,0 0,-6.349609 0,-12.699219 0,-19.048828 -10.58399,0 -21.16797,0 -31.75196,0 0,6.349609 0,12.699219 0,19.048828 -6.34896,0 -12.69791,0 -19.04687,0 0,-6.349609 0,-12.699219 0,-19.048828 -10.58399,0 -21.16797,0 -31.75196,0 0,6.349609 0,12.699219 0,19.048828 -6.34961,0 -12.69922,0 -19.04883,0 0,-6.349609 0,-12.699219 0,-19.048828 -10.58398,0 -21.167965,0 -31.751949,0 0,6.349609 0,12.699219 0,19.048828 -6.349609,0 -12.699219,0 -19.048828,0 0,-6.349609 0,-12.699219 0,-19.048828 -10.583333,0 -21.166667,0 -31.75,0 0,1.058594 0,2.117187 0,3.175781 z" />
    <path
       id="path2338"
       style="fill:#ff0000;stroke:#000000;stroke-width:6.35003;stroke-linejoin:round;stroke-miterlimit:0.25;stroke-dasharray:none;stroke-opacity:1"
       d="m 28.575017,95.059377 c 0,11.641923 0,23.283853 0,34.925783 8.466797,0 16.933594,0 25.40039,0 0,6.34961 0,12.69922 0,19.04883 10.583985,0 21.167969,0 31.751953,0 0,-6.34961 10e-7,-12.69922 0,-19.04883 6.348959,0 12.697917,0 19.04688,0 0,6.34961 0,12.69922 0,19.04883 10.58398,0 21.16796,0 31.75195,0 0,-6.34961 0,-12.69922 0,-19.04883 6.34961,0 12.69922,0 19.04883,0 0,6.34961 0,12.69922 0,19.04883 10.58398,0 21.16797,0 31.75195,0 0,-6.34961 0,-12.69922 0,-19.04883 6.35026,0 12.70052,0 19.05078,0 0,6.34961 0,12.69922 0,19.04883 10.58334,0 21.16667,0 31.75,0 0,-19.05013 0,-38.10026 0,-57.150394 -69.85091,0 -139.701822,0 -209.552733,0 0,1.058593 0,2.117187 0,3.175781 z" />
  </g>
</svg>
