<?xml version="1.0" encoding="UTF-8" standalone="no"?>
<svg
   xmlns:gcode="http://www.thenewentity.com/gcode/0.1"
   xmlns:dc="http://purl.org/dc/elements/1.1/"
   xmlns:cc="http://creativecommons.org/ns#"
   xmlns:rdf="http://www.w3.org/1999/02/22-rdf-syntax-ns#"
   xmlns:svg="http://www.w3.org/2000/svg"
   xmlns="http://www.w3.org/2000/svg"
   xmlns:sodipodi="http://sodipodi.sourceforge.net/DTD/sodipodi-0.dtd"
   xmlns:inkscape="http://www.inkscape.org/namespaces/inkscape"
   width="15.888411in"
   height="12.261594in"
   viewBox="0 0 403.56563 311.44449"
   version="1.1"
   id="svg8"
   inkscape:version="1.0.1 (c497b03c, 2020-09-10)"
   sodipodi:docname="sample.svg">
  <defs
     id="defs2">
    <rect
       x="116.41667"
       y="9.0714283"
       width="155.7262"
       height="37.041668"
       id="rect1064" />
  </defs>
  <sodipodi:namedview
     id="base"
     pagecolor="#ffffff"
     bordercolor="#666666"
     borderopacity="1.0"
     inkscape:pageopacity="0.0"
     inkscape:pageshadow="2"
     inkscape:zoom="0.35355339"
     inkscape:cx="325.07589"
     inkscape:cy="871.99991"
     inkscape:document-units="in"
     inkscape:current-layer="layer1"
     inkscape:document-rotation="0"
     showgrid="false"
     inkscape:window-width="2560"
     inkscape:window-height="1440"
     inkscape:window-x="0"
     inkscape:window-y="0"
     inkscape:window-maximized="0"
     units="in"
     fit-margin-top="1"
     fit-margin-left="1"
     fit-margin-right="1"
     fit-margin-bottom="1">
    <inkscape:grid
       type="xygrid"
       id="grid66"
       originx="12.241869"
       originy="14.506389" />
  </sodipodi:namedview>
  <metadata
     id="metadata5">
    <rdf:RDF>
      <cc:Work
         rdf:about="">
        <dc:format>image/svg+xml</dc:format>
        <dc:type
           rdf:resource="http://purl.org/dc/dcmitype/StillImage" />
        <dc:title></dc:title>
      </cc:Work>
    </rdf:RDF>
  </metadata>
  <g
     inkscape:label="Layer 1"
     inkscape:groupmode="layer"
     id="layer1"
     transform="translate(12.241869,14.506389)">
    <ellipse
       style="fill:none;stroke:#000000;stroke-width:6.35;stroke-miterlimit:4;stroke-dasharray:none;stroke-opacity:1"
       id="head"
       cx="124.73214"
       cy="186.34225"
       rx="80.886909"
       ry="82.020836">
      <gcode:settings
         tool="1/4-in-endmill"
         depth="{{full}}"
         mode="outline" />
    </ellipse>
    <ellipse
       style="fill:#ff0000;stroke-width:0.161411"
       id="path260"
       cx="92.604164"
       cy="178.78275"
       rx="15.497023"
       ry="23.056547">
      <gcode:settings />
    </ellipse>
    <ellipse
       style="fill:#ff0000;stroke-width:0.28285"
       id="ellipse262"
       cx="160.2619"
       cy="184.45239"
       rx="30.238094"
       ry="36.285713">
      <gcode:settings />
    </ellipse>
    <ellipse
       style="fill:#ff0000;stroke-width:0.124335"
       id="ellipse264"
       cx="119.44049"
       cy="234.34525"
       rx="40.065475"
       ry="5.2916656">
      <gcode:settings />
    </ellipse>
    <path
       id="hair"
       style="fill:none;stroke:#000000;stroke-width:6.35;stroke-linecap:butt;stroke-linejoin:miter;stroke-miterlimit:4;stroke-dasharray:none;stroke-opacity:1"
       d="m 196.54762,124.73214 c 12.49455,-23.78677 12.10047,-12.85643 24.19047,-24.946426 m -71.81547,-8.315476 c 8.68911,9.582692 28.61025,-16.708244 40.06547,-9.07143 2.42542,1.616946 4.53572,3.289046 4.53572,2.267858 m -83.91072,4.535715 C 121.13774,60.912327 123.55421,61.460617 102.80952,35.52976 M 74.083332,108.10119 C 64.898679,93.621057 60.561111,78.279367 65.011905,60.47619 m -7.559524,68.79167 C 33.230343,100.77823 59.48725,90.963555 13.607144,97.517856">
      <gcode:settings
         tool="1/4-in-endmill"
         mode="outline"
         depth="0.25" />
    </path>
    <g
       id="g1423">
      <path
         d="m 135.5048,35.190856 q 0,1.937546 -0.65701,3.830548 -0.64097,1.893001 -1.81078,3.206968 -1.28197,1.425324 -2.99663,2.227064 -1.69862,0.801744 -4.1023,0.801744 -2.57998,0 -4.64716,-0.668119 -2.05117,-0.66812 -4.18243,-1.982087 v -5.523112 h 0.2242 q 1.81081,2.093439 4.18244,3.229241 2.37165,1.135797 4.45489,1.135797 2.94852,0 4.58305,-1.536672 1.65052,-1.536671 1.65052,-4.097793 0,-2.204791 -0.7852,-3.251513 -0.76919,-1.046717 -2.35562,-1.625752 -1.20184,-0.445414 -2.61204,-0.734932 -1.39414,-0.289521 -2.96456,-0.734932 -3.17289,-0.935364 -4.71125,-3.184696 -1.52233,-2.271603 -1.52233,-5.901714 0,-4.16461 2.53188,-6.814811 2.53192,-2.672474 6.4259,-2.672474 2.51588,0 4.61512,0.668115 2.09923,0.66812 3.71772,1.648029 v 5.211323 h -0.22451 q -1.3621,-1.603485 -3.58953,-2.650202 -2.21139,-1.068989 -4.53499,-1.068989 -2.54791,0 -4.1023,1.469859 -1.53837,1.469859 -1.53837,3.786008 0,2.071166 0.76917,3.251508 0.7692,1.180342 2.70817,1.803922 1.02559,0.311802 2.9165,0.757199 1.89091,0.445415 3.20495,0.913097 2.66008,0.979909 4.00615,2.961991 1.34607,1.982087 1.34607,5.545385 z"
         id="path1266"
         style="font-style:normal;font-weight:normal;font-size:10.5833px;line-height:1.25;font-family:sans-serif;white-space:pre;fill:#000000;fill-opacity:1;stroke:none;stroke-width:3.65569" />
      <path
         d="m 155.61576,32.228865 q 0,6.079879 -2.24343,9.598637 -2.24346,3.518758 -6.00926,3.518758 -3.79785,0 -6.04131,-3.518758 -2.22743,-3.518758 -2.22743,-9.598637 0,-6.079879 2.22743,-9.598638 2.24346,-3.54103 6.04131,-3.54103 3.7658,0 6.00926,3.54103 2.24343,3.518759 2.24343,9.598638 z m -3.10879,0 q 0,-4.832725 -1.36207,-7.171141 -1.3621,-2.360684 -3.78183,-2.360684 -2.45178,0 -3.81388,2.360684 -1.34607,2.338416 -1.34607,7.171141 0,4.676832 1.3621,7.104328 1.3621,2.405229 3.79785,2.405229 2.40369,0 3.7658,-2.382956 1.3781,-2.405229 1.3781,-7.126601 z"
         id="path1268"
         style="font-style:normal;font-weight:normal;font-size:10.5833px;line-height:1.25;font-family:sans-serif;white-space:pre;fill:#000000;fill-opacity:1;stroke:none;stroke-width:3.65569" />
      <path
         d="m 186.41519,44.655873 h -3.01263 V 30.491756 q 0,-1.603484 -0.11226,-3.095616 -0.0961,-1.492132 -0.43267,-2.382956 -0.36859,-0.957637 -1.05762,-1.447592 -0.68907,-0.489954 -1.98708,-0.489954 -1.26594,0 -2.53188,0.890824 -1.26597,0.868557 -2.53191,2.227064 0.0481,0.512226 0.08,1.202614 0.0319,0.668119 0.0319,1.336239 v 15.923494 h -3.01262 V 30.491756 q 0,-1.648025 -0.11226,-3.117888 -0.0961,-1.492132 -0.43268,-2.382957 -0.36855,-0.957637 -1.05762,-1.425319 -0.68906,-0.489954 -1.98707,-0.489954 -1.23391,0 -2.48382,0.846284 -1.23391,0.846284 -2.46778,2.160251 v 18.5737 h -3.01266 V 19.779589 h 3.01266 v 2.761554 q 1.41016,-1.625752 2.8043,-2.538849 1.41017,-0.913097 2.99663,-0.913097 1.82681,0 3.09275,1.068989 1.28198,1.06899 1.90695,2.961996 1.82681,-2.137983 3.33311,-3.073348 1.50633,-0.957637 3.22098,-0.957637 2.94853,0 4.34267,2.494309 1.41016,2.472041 1.41016,6.926164 z"
         id="path1270"
         style="font-style:normal;font-weight:normal;font-size:10.5833px;line-height:1.25;font-family:sans-serif;white-space:pre;fill:#000000;fill-opacity:1;stroke:none;stroke-width:3.65569" />
      <path
         d="M 207.19921,32.652007 H 194.0109 q 0,2.293872 0.49677,4.008713 0.49675,1.692564 1.36208,2.783826 0.83329,1.068989 1.97104,1.603484 1.15378,0.534495 2.53191,0.534495 1.82681,0 3.66963,-1.002177 1.85888,-1.024449 2.64408,-2.004354 h 0.16032 v 4.565475 q -1.52236,0.890825 -3.10879,1.492132 -1.58646,0.601307 -3.33314,0.601307 -4.45486,0 -6.95471,-3.340593 -2.49985,-3.362866 -2.49985,-9.531825 0,-6.102152 2.38768,-9.687722 2.40369,-3.585571 6.31371,-3.585571 3.6216,0 5.57661,2.939723 1.97104,2.939723 1.97104,8.351483 z m -2.93252,-3.206968 q -0.0155,-3.296053 -1.20185,-5.099975 -1.16981,-1.803921 -3.5735,-1.803921 -2.41972,0 -3.86195,1.982086 -1.4262,1.982086 -1.61849,4.92181 z"
         id="path1272"
         style="font-style:normal;font-weight:normal;font-size:10.5833px;line-height:1.25;font-family:sans-serif;white-space:pre;fill:#000000;fill-opacity:1;stroke:none;stroke-width:3.65569" />
      <path
         d="m 232.59833,44.433164 q -0.84933,0.311802 -1.85888,0.512226 -0.99352,0.200442 -1.77875,0.200442 -2.74021,0 -4.16641,-2.048899 -1.4262,-2.048898 -1.4262,-6.569834 V 23.298351 h -2.03513 v -3.518758 h 2.03513 V 12.63072 h 3.01266 v 7.148873 h 6.21758 v 3.518758 h -6.21758 v 11.335747 q 0,1.959814 0.0642,3.073343 0.0642,1.091262 0.44868,2.048899 0.35255,0.890825 0.96149,1.313967 0.62497,0.400883 1.89091,0.400883 0.73713,0 1.53836,-0.289522 0.80123,-0.311803 1.15378,-0.512223 h 0.16032 z"
         id="path1274"
         style="font-style:normal;font-weight:normal;font-size:10.5833px;line-height:1.25;font-family:sans-serif;white-space:pre;fill:#000000;fill-opacity:1;stroke:none;stroke-width:3.65569" />
      <path
         d="m 251.235,32.652007 h -13.18829 q 0,2.293872 0.49674,4.008713 0.49678,1.692564 1.36211,2.783826 0.83329,1.068989 1.97104,1.603484 1.15378,0.534495 2.53191,0.534495 1.82679,0 3.66963,-1.002177 1.85888,-1.024449 2.64408,-2.004354 h 0.16032 v 4.565475 q -1.52236,0.890825 -3.10879,1.492132 -1.58646,0.601307 -3.33314,0.601307 -4.45486,0 -6.95471,-3.340593 -2.49985,-3.362866 -2.49985,-9.531825 0,-6.102152 2.38769,-9.687722 2.40368,-3.585571 6.3137,-3.585571 3.6216,0 5.57661,2.939723 1.97101,2.939723 1.97101,8.351483 z m -2.9325,-3.206968 q -0.0155,-3.296053 -1.20185,-5.099975 -1.16981,-1.803921 -3.5735,-1.803921 -2.41975,0 -3.86195,1.982086 -1.4262,1.982086 -1.61849,4.92181 z"
         id="path1276"
         style="font-style:normal;font-weight:normal;font-size:10.5833px;line-height:1.25;font-family:sans-serif;white-space:pre;fill:#000000;fill-opacity:1;stroke:none;stroke-width:3.65569" />
      <path
         d="m 268.58972,37.484732 q 0,3.407406 -2.03511,5.589925 -2.01914,2.182523 -5.52854,2.182523 -1.98704,0 -3.6536,-0.645852 -1.65055,-0.668115 -2.77227,-1.447587 v -4.699104 h 0.16032 q 1.4262,1.492131 3.17289,2.38296 1.74668,0.868553 3.34917,0.868553 1.98705,0 3.10879,-0.890825 1.12172,-0.890824 1.12172,-2.806098 0,-1.46986 -0.60894,-2.227064 -0.60894,-0.7572 -2.33959,-1.291694 -0.641,-0.200442 -1.68259,-0.467683 -1.02559,-0.267241 -1.87491,-0.579039 -2.35563,-0.868552 -3.34915,-2.538849 -0.97752,-1.692569 -0.97752,-4.142337 0,-1.536672 0.44871,-2.895179 0.46472,-1.358507 1.39414,-2.427497 0.89739,-1.046721 2.2755,-1.648028 1.39416,-0.623575 3.10878,-0.623575 1.60249,0 3.23699,0.556762 1.65055,0.534495 2.74023,1.313967 v 4.476395 h -0.16032 q -1.15378,-1.180342 -2.8043,-1.982082 -1.65056,-0.824016 -3.23698,-0.824016 -1.65056,0 -2.78831,0.890824 -1.13774,0.868557 -1.13774,2.605666 0,1.536672 0.68906,2.316144 0.67304,0.779472 2.17934,1.269426 0.83329,0.267241 1.85888,0.534495 1.04158,0.267241 1.73065,0.489955 2.09923,0.668115 3.23698,2.293871 1.13775,1.648025 1.13775,4.365043 z"
         id="path1278"
         style="font-style:normal;font-weight:normal;font-size:10.5833px;line-height:1.25;font-family:sans-serif;white-space:pre;fill:#000000;fill-opacity:1;stroke:none;stroke-width:3.65569" />
      <path
         d="m 282.21071,44.433164 q -0.84932,0.311802 -1.85887,0.512226 -0.99353,0.200442 -1.77875,0.200442 -2.74021,0 -4.16641,-2.048899 -1.4262,-2.048898 -1.4262,-6.569834 V 23.298351 h -2.03514 v -3.518758 h 2.03514 V 12.63072 h 3.01266 v 7.148873 h 6.21757 v 3.518758 h -6.21757 v 11.335747 q 0,1.959814 0.0642,3.073343 0.0642,1.091262 0.44868,2.048899 0.35255,0.890825 0.96149,1.313967 0.62497,0.400883 1.89091,0.400883 0.73713,0 1.53836,-0.289522 0.80123,-0.311803 1.15378,-0.512223 h 0.16032 z"
         id="path1280"
         style="font-style:normal;font-weight:normal;font-size:10.5833px;line-height:1.25;font-family:sans-serif;white-space:pre;fill:#000000;fill-opacity:1;stroke:none;stroke-width:3.65569" />
      <path
         d="m 314.66067,15.414546 h -8.52514 v 29.241327 h -3.17288 V 15.414546 h -8.52514 v -3.919632 h 20.22316 z"
         id="path1282"
         style="font-style:normal;font-weight:normal;font-size:10.5833px;line-height:1.25;font-family:sans-serif;white-space:pre;fill:#000000;fill-opacity:1;stroke:none;stroke-width:3.65569" />
      <path
         d="m 332.64036,32.652007 h -13.18832 q 0,2.293872 0.49678,4.008713 0.49678,1.692564 1.3621,2.783826 0.83327,1.068989 1.97104,1.603484 1.15375,0.534495 2.53189,0.534495 1.82681,0 3.66966,-1.002177 1.85885,-1.024449 2.64407,-2.004354 h 0.16032 v 4.565475 q -1.52233,0.890825 -3.10878,1.492132 -1.58643,0.601307 -3.33312,0.601307 -4.45486,0 -6.95471,-3.340593 -2.49984,-3.362866 -2.49984,-9.531825 0,-6.102152 2.38765,-9.687722 2.40372,-3.585571 6.31374,-3.585571 3.62156,0 5.57657,2.939723 1.97104,2.939723 1.97104,8.351483 z m -2.93253,-3.206968 q -0.0155,-3.296053 -1.20184,-5.099975 -1.16981,-1.803921 -3.5735,-1.803921 -2.41972,0 -3.86195,1.982086 -1.4262,1.982086 -1.6185,4.92181 z"
         id="path1284"
         style="font-style:normal;font-weight:normal;font-size:10.5833px;line-height:1.25;font-family:sans-serif;white-space:pre;fill:#000000;fill-opacity:1;stroke:none;stroke-width:3.65569" />
      <path
         d="m 352.70326,44.655873 h -3.79786 l -5.07983,-9.554097 -5.11186,9.554097 h -3.5094 l 6.98674,-12.404736 -6.92264,-12.471548 h 3.79785 l 5.04777,9.3982 5.06379,-9.3982 h 3.52544 l -7.03484,12.248839 z"
         id="path1286"
         style="font-style:normal;font-weight:normal;font-size:10.5833px;line-height:1.25;font-family:sans-serif;white-space:pre;fill:#000000;fill-opacity:1;stroke:none;stroke-width:3.65569" />
      <path
         d="m 365.92361,44.433164 q -0.84933,0.311802 -1.85888,0.512226 -0.99352,0.200442 -1.77872,0.200442 -2.74024,0 -4.16644,-2.048899 -1.4262,-2.048898 -1.4262,-6.569834 V 23.298351 h -2.0351 v -3.518758 h 2.0351 V 12.63072 h 3.01266 v 7.148873 h 6.21758 v 3.518758 h -6.21758 v 11.335747 q 0,1.959814 0.0642,3.073343 0.0642,1.091262 0.44868,2.048899 0.35255,0.890825 0.96149,1.313967 0.62497,0.400883 1.89091,0.400883 0.73713,0 1.53836,-0.289522 0.80123,-0.311803 1.15378,-0.512223 h 0.16032 z"
         id="path1288"
         style="font-style:normal;font-weight:normal;font-size:10.5833px;line-height:1.25;font-family:sans-serif;white-space:pre;fill:#000000;fill-opacity:1;stroke:none;stroke-width:3.65569" />
    </g>
  </g>
  <gcode:globals
     fulldepth="0.78">
    <gcode:tools>
      <gcode:tool
         diameter="0.25in"
         type="endmill"
         id="1/4-in-endmill" />
    </gcode:tools>
  </gcode:globals>
</svg>
